<svg xmlns="http://www.w3.org/2000/svg" width="256" height="256" viewBox="0 0 256 256" role="img" aria-label="ClipNest icon">
  <defs>
    <filter id="s" x="-20%" y="-20%" width="140%" height="140%">
      <feDropShadow dx="0" dy="3" stdDeviation="3" flood-opacity="0.2"/>
    </filter>
  </defs>
  <g filter="url(#s)">
    <rect x="50" y="34" width="156" height="188" rx="24" fill="#225c85" stroke="#123f60" stroke-width="4"/>
    <rect x="90" y="16" width="76" height="38" rx="14" fill="#397fae" stroke="#1a4f75" stroke-width="3"/>
    <rect x="72" y="66" width="112" height="92" rx="10" fill="#fafcff" stroke="#abc5da" stroke-width="2"/>
    <path d="M86 88h84M86 104h76M86 120h66" stroke="#93b2ca" stroke-width="3" stroke-linecap="round"/>
    <path d="M68 168c16-16 102-20 124 8" fill="none" stroke="#a86e3b" stroke-width="7" stroke-linecap="round"/>
    <path d="M74 176c20-13 92-15 110 7" fill="none" stroke="#8f5b2f" stroke-width="7" stroke-linecap="round"/>
    <path d="M80 184c24-11 80-11 96 6" fill="none" stroke="#7a4c27" stroke-width="7" stroke-linecap="round"/>
    <path d="M88 192c24-8 64-8 80 6" fill="none" stroke="#633f22" stroke-width="7" stroke-linecap="round"/>
    <path d="M88 182l32-18M138 188l28-22" stroke="#56361d" stroke-width="4" stroke-linecap="round"/>
    <ellipse cx="123" cy="167" rx="11" ry="15" fill="#fff7e3" stroke="#d6c5a0" stroke-width="2"/>
    <ellipse cx="142" cy="169" rx="10" ry="13" fill="#fbefd3" stroke="#d6c5a0" stroke-width="2"/>
  </g>
</svg>
